<?xml version="1.0" encoding="utf-8"?>
<!-- Generator: Adobe Illustrator 27.9.0, SVG Export Plug-In . SVG Version: 6.00 Build 0)  -->
<svg version="1.1" id="Capa_1" xmlns:serif="http://www.serif.com/"
	 xmlns="http://www.w3.org/2000/svg" xmlns:xlink="http://www.w3.org/1999/xlink" x="0px" y="0px" viewBox="0 0 48 48"
	 style="enable-background:new 0 0 48 60;" xml:space="preserve">
<style type="text/css">
	.st0{fill-rule:evenodd;clip-rule:evenodd;}
</style>
<g transform="matrix(1,0,0,1,-48,-144)">
	<g>
		<path class="st0" d="M77,188c0,0.6,0.4,1,1,1c2.3,0,8,0,8,0c1.7,0,3-1.3,3-3v-15h1c1.2,0,2.3-0.7,2.8-1.9c0.5-1.1,0.2-2.4-0.7-3.3
			l-18-18c-1.2-1.2-3.1-1.2-4.2,0l-18,18c-0.9,0.9-1.1,2.1-0.7,3.3c0.5,1.1,1.6,1.9,2.8,1.9h1v15c0,1.7,1.3,3,3,3h8c0.6,0,1-0.4,1-1
			c0-3,0-12,0-12c0-1.7,1.3-3,3-3h4c1.7,0,3,1.3,3,3C77,176,77,185,77,188z"/>
	</g>
</g>
</svg>
