
<svg width="52" height="52" viewBox="0 0 52 52" xmlns="http://www.w3.org/2000/svg">
<path d="M23.2253 0.0995641C17.5422 0.637706 11.9943 3.12173 7.63421 7.5466C3.2741 11.9702 0.830307 17.6037 0.301583 23.3821C6.54201 24.1168 13.1771 27.3558 18.6245 32.8872C24.0743 38.4198 27.2677 45.1624 27.9851 51.4941C33.6844 50.9572 39.2186 48.4744 43.5824 44.0521C47.9413 39.6297 50.3826 33.9937 50.9089 28.2166C44.6833 27.4831 38.037 24.2441 32.5897 18.7115C27.1461 13.1801 23.9526 6.43628 23.2253 0.0995641Z"/>
<path d="M51.0106 25.0167C50.8257 18.6711 48.3534 12.3848 43.5899 7.54155C38.8239 2.69827 32.6257 0.196605 26.3766 0C27.0791 5.54148 29.9771 11.4963 34.8349 16.4304C39.6927 21.3644 45.5496 24.3021 51.0106 25.0167Z"/>
<path d="M0.208496 26.5794C0.392184 32.9225 2.86577 39.21 7.63421 44.0508C12.3989 48.889 18.5897 51.4033 24.8376 51.5873C24.1351 46.0534 21.2408 40.1023 16.3805 35.1683C11.5252 30.2368 5.66204 27.2978 0.208496 26.5794Z"/>
</svg>
