<svg width="25" height="7" viewBox="0 0 25 7" xmlns="http://www.w3.org/2000/svg" style="enable-background:new 0 0 48 60;">
<path d="M3.125 0C1.40625 0 0 1.40625 0 3.125C0 4.84375 1.40625 6.25 3.125 6.25C4.84375 6.25 6.25 4.84375 6.25 3.125C6.25 1.40625 4.84375 0 3.125 0ZM21.875 0C20.1562 0 18.75 1.40625 18.75 3.125C18.75 4.84375 20.1562 6.25 21.875 6.25C23.5938 6.25 25 4.84375 25 3.125C25 1.40625 23.5938 0 21.875 0ZM12.5 0C10.7812 0 9.375 1.40625 9.375 3.125C9.375 4.84375 10.7812 6.25 12.5 6.25C14.2188 6.25 15.625 4.84375 15.625 3.125C15.625 1.40625 14.2188 0 12.5 0Z"/>
</svg>
