<svg width="31" height="31" viewBox="0 0 31 31" xmlns="http://www.w3.org/2000/svg">
<g clip-path="url(#clip0_604_1832)">
<path d="M17.4375 9.6875C17.4375 11.2291 16.8251 12.7075 15.7351 13.7976C14.645 14.8876 13.1666 15.5 11.625 15.5C10.0834 15.5 8.605 14.8876 7.51494 13.7976C6.42489 12.7075 5.8125 11.2291 5.8125 9.6875C5.8125 8.14593 6.42489 6.6675 7.51494 5.57744C8.605 4.48739 10.0834 3.875 11.625 3.875C13.1666 3.875 14.645 4.48739 15.7351 5.57744C16.8251 6.6675 17.4375 8.14593 17.4375 9.6875ZM0 25.1875C0 27.125 1.9375 27.125 1.9375 27.125H21.3125C21.3125 27.125 23.25 27.125 23.25 25.1875C23.25 23.25 21.3125 17.4375 11.625 17.4375C1.9375 17.4375 0 23.25 0 25.1875ZM26.1563 9.51312C28.8436 6.75219 35.5628 11.5863 26.1563 17.7998C16.7516 11.5863 23.4689 6.75219 26.1563 9.51506V9.51312Z" fill="#2D5E72"/>
</g>
<defs>
<clipPath id="clip0_604_1832">
<rect width="31" height="31" fill="white"/>
</clipPath>
</defs>
</svg>
