<?xml version="1.0" standalone="no"?>
<!DOCTYPE svg PUBLIC "-//W3C//DTD SVG 20010904//EN"
 "http://www.w3.org/TR/2001/REC-SVG-20010904/DTD/svg10.dtd">
<svg version="1.0" xmlns="http://www.w3.org/2000/svg"
 width="50.000000pt" height="50.000000pt" viewBox="0 0 50.000000 50.000000"
 preserveAspectRatio="xMidYMid meet">

<g transform="translate(0.000000,50.000000) scale(0.100000,-0.100000)"
fill="#000000" stroke="none">
<path d="M0 250 l0 -250 250 0 250 0 0 250 0 250 -250 0 -250 0 0 -250z m335
214 c52 -18 94 -57 126 -118 17 -32 20 -53 17 -111 -3 -63 -8 -78 -43 -133
-44 -66 -62 -78 -145 -87 -147 -16 -270 90 -270 232 0 97 45 167 135 209 59
28 113 30 180 8z"/>
<path d="M165 433 c-16 -8 -38 -23 -48 -31 -18 -16 -17 -17 8 -24 16 -4 40 -1
60 8 19 8 50 14 70 14 20 0 47 8 62 17 23 16 24 17 7 24 -34 13 -128 9 -159
-8z"/>
<path d="M352 408 c-18 -18 -14 -31 13 -51 l25 -18 0 41 c0 41 -14 52 -38 28z"/>
<path d="M400 352 c0 -16 6 -44 14 -63 8 -18 11 -49 9 -70 -3 -20 -1 -45 5
-55 9 -15 12 -12 21 22 6 21 11 48 11 60 0 31 -29 111 -46 125 -12 9 -14 6
-14 -19z"/>
<path d="M105 360 c11 -5 29 -8 40 -8 16 0 15 2 -5 8 -34 11 -60 11 -35 0z"/>
<path d="M64 324 c4 -16 14 -42 21 -59 7 -16 17 -50 20 -74 4 -26 17 -54 31
-68 33 -33 53 -29 21 5 -28 29 -37 84 -17 97 6 3 -6 21 -25 39 -19 18 -35 43
-35 54 0 11 -5 24 -11 28 -9 5 -10 -1 -5 -22z"/>
<path d="M49 275 c-2 -59 3 -90 22 -127 31 -61 111 -108 183 -108 28 1 29 2
11 12 -10 6 -44 19 -75 28 -63 18 -100 61 -100 114 0 18 -9 49 -20 71 l-20 39
-1 -29z"/>
<path d="M238 253 c7 -3 16 -2 19 1 4 3 -2 6 -13 5 -11 0 -14 -3 -6 -6z"/>
<path d="M252 148 c-18 -18 -15 -32 13 -58 14 -13 25 -18 25 -12 0 7 11 12 24
12 13 0 29 7 36 15 8 9 21 13 36 9 16 -4 26 -1 30 9 9 24 -7 44 -18 23 -11
-20 -38 -21 -64 -1 -23 18 -66 19 -82 3z"/>
<path d="M340 75 l-45 -12 27 -13 c32 -15 53 -9 68 19 12 23 13 23 -50 6z"/>
</g>
</svg>
